<svg xmlns="http://www.w3.org/2000/svg" width="148" height="148" viewBox="0 0 148 148">
  <g fill="none" stroke="#E8B98C" stroke-opacity="0.06" stroke-width="1.3">
    <path d="M0 0 L148 148 M148 0 L0 148"></path>
    <path d="M74 0 V148 M0 74 H148"></path>
  </g>

  <circle cx="74" cy="74" r="33" fill="none" stroke="#C0632B" stroke-opacity="0.22" stroke-width="1.2"></circle>

  <g fill="none" stroke="#C0632B" stroke-opacity="0.34" stroke-width="1.4">
    <path d="M74 74 Q60 60 74 46 Q88 60 74 74 Z"></path>
    <path d="M74 74 Q60 88 74 102 Q88 88 74 74 Z"></path>
    <path d="M74 74 Q60 60 46 74 Q60 88 74 74 Z"></path>
    <path d="M74 74 Q88 60 102 74 Q88 88 74 74 Z"></path>
  </g>
  <circle cx="74" cy="74" r="3.4" fill="#C0632B" fill-opacity="0.40"></circle>

  <g fill="#E8B98C" fill-opacity="0.07">
    <path d="M74 66 L82 74 L74 82 L66 74 Z"></path>
  </g>

  <g fill="#C0632B" fill-opacity="0.30">
    <circle cx="0" cy="0" r="4.5"></circle>
    <circle cx="148" cy="0" r="4.5"></circle>
    <circle cx="0" cy="148" r="4.5"></circle>
    <circle cx="148" cy="148" r="4.5"></circle>
  </g>
</svg>